# Blender v2.80 (sub 75) OBJ File: ''
# www.blender.org
mtllib Rock.mtl
o Cube_Cube.004
v 0.547224 -0.598503 -1.525169
v -1.548196 0.009970 -0.032073
v 0.437157 -0.607852 -1.546982
v -1.338892 0.047566 -0.802073
v 0.622782 -0.585042 -1.493759
v 0.549463 -0.558874 -1.534991
v 0.440499 -0.494894 -1.576081
v 0.539832 -0.657666 -1.496501
v 0.387165 -0.739530 -1.489601
v 0.736516 -0.615164 -1.421374
v 1.167627 -0.651289 -1.084195
v 1.279848 -0.618825 -0.962739
v 1.256790 -0.739766 -0.906370
v 1.182430 -1.083856 -0.497083
v 1.149044 -1.017265 0.781751
v -1.020772 -0.876649 -0.739804
v 0.074634 -1.077095 -1.248668
v 0.229288 -1.326483 -0.812237
v -1.399922 -0.423785 0.000700
v -0.081904 -1.376921 -0.420804
v -1.054801 -0.960436 -0.517056
v 1.153662 -0.985394 0.808361
v 1.097663 -1.025900 0.841102
v 1.055366 -1.034234 0.868906
v 1.466458 0.697951 0.255283
v 1.369456 0.257788 0.832277
v -1.410993 0.483094 0.493528
v -1.137923 -0.063882 0.696523
v 0.266899 -0.178102 1.526845
v 0.855333 0.556925 1.225516
v 1.013100 1.247720 0.312487
v 0.398433 0.590027 1.542854
v -1.088071 1.118436 0.631949
v 0.310565 0.702416 1.482577
v 0.663549 1.539552 0.250342
v 0.318790 1.642398 0.040207
v -0.784344 1.454623 0.161611
v -1.016652 0.502077 -1.076313
v -0.234169 0.380342 -1.445014
v -0.619961 1.401580 -0.632832
v -0.363647 1.440975 -0.701616
vt 0.432498 0.413742
vt 0.446429 0.417714
vt 0.446429 0.428571
vt 0.439911 0.428571
vt 0.456654 0.417551
vt 0.450067 0.428571
vt 0.446429 0.436568
vt 0.440384 0.449707
vt 0.420351 0.527463
vt 0.423397 0.506093
vt 0.432896 0.523160
vt 0.552448 0.255564
vt 0.810545 0.560902
vt 0.787121 0.554241
vt 0.538847 0.349128
vt 0.381296 0.726253
vt 0.386561 0.716385
vt 0.389945 0.718697
vt 0.376856 0.731407
vt 0.247261 0.582693
vt 0.278044 0.543352
vt 0.384281 0.569599
vt 0.320884 0.472399
vt 0.244057 0.480141
vt 0.268609 0.441666
vt 0.501742 0.130735
vt 0.505871 0.207922
vt 0.384389 0.294748
vt 0.563487 0.650845
vt 0.522814 0.710559
vt 0.642418 0.657230
vt 0.552001 0.778933
vt 0.477129 0.840468
vt 0.455034 0.612997
vt 0.549448 0.073927
vt 0.723955 0.628465
vt 0.823085 0.641953
vt 0.681639 0.237098
vt 0.575891 0.832534
vt 0.689926 0.649526
vt 0.551837 0.835465
vt 0.588259 0.820165
vt 0.827349 0.630082
vn 0.2065 -0.4531 -0.8672
vn 0.2095 -0.2489 -0.9456
vn 0.4043 -0.4313 -0.8065
vn 0.4089 -0.2413 -0.8801
vn 0.7240 -0.4000 -0.5620
vn -0.2950 0.5240 -0.7990
vn 0.6795 -0.5257 0.5118
vn 0.2287 -0.9719 0.0566
vn 0.3730 -0.7425 -0.5564
vn -0.3330 -0.8647 -0.3761
vn -0.9068 -0.3298 -0.2626
vn 0.9846 -0.1716 0.0346
vn 0.6893 0.5154 0.5091
vn -0.3769 -0.7571 0.5335
vn -0.8529 -0.2572 0.4542
vn -0.0823 0.8352 0.5438
vn 0.5612 -0.1132 0.8199
vn 0.5519 0.5227 -0.6497
vn 0.4555 0.6703 0.5859
vn -0.5035 0.0683 0.8613
vn -0.8528 0.4789 -0.2084
vn -0.1778 0.9787 -0.1021
vn -0.4433 -0.2113 -0.8711
usemtl None
s off
f 9/1/1 3/2/1 1/3/1 8/4/1
f 3/2/2 7/5/2 6/6/2 1/3/2
f 8/4/3 1/3/3 5/7/3 10/8/3
f 1/3/4 6/6/4 5/7/4
f 13/9/5 11/10/5 12/11/5
f 38/12/6 40/13/6 41/14/6 39/15/6
f 23/16/7 15/17/7 22/18/7
f 24/19/8 20/20/8 18/21/8 14/22/8 15/17/8 23/16/8
f 8/4/9 10/8/9 11/10/9 13/9/9 14/22/9 18/21/9 17/23/9 9/1/9
f 17/23/10 18/21/10 20/20/10 21/24/10 16/25/10
f 2/26/11 4/27/11 16/25/11 21/24/11 19/28/11
f 12/11/12 25/29/12 26/30/12 22/18/12 15/17/12 14/22/12 13/9/12
f 31/31/13 30/32/13 26/30/13 25/29/13
f 24/19/14 29/33/14 28/34/14 19/28/14 21/24/14 20/20/14
f 19/28/15 28/34/15 27/35/15 2/26/15
f 36/36/16 37/37/16 33/38/16 34/39/16 35/40/16
f 26/30/17 30/32/17 32/41/17 29/33/17 24/19/17 23/16/17 22/18/17
f 39/15/18 41/14/18 36/36/18 35/40/18 31/31/18 25/29/18 12/11/18 11/10/18 10/8/18 5/7/18 6/6/18 7/5/18
f 31/31/19 35/40/19 34/42/19 32/41/19 30/32/19
f 32/41/20 34/39/20 33/43/20 27/35/20 28/34/20 29/33/20
f 40/13/21 38/12/21 4/27/21 2/26/21 27/35/21 33/38/21 37/37/21
f 37/37/22 36/36/22 41/14/22 40/13/22
f 9/1/23 17/23/23 16/25/23 4/27/23 38/12/23 39/15/23 7/5/23 3/2/23
