# Blender v2.80 (sub 75) OBJ File: ''
# www.blender.org
mtllib Rock2.mtl
o Cube_Cube.006
v -0.128195 1.287781 -1.114256
v 0.689598 1.542760 0.336259
v 1.089210 1.202688 -0.379080
v -0.230090 1.470444 -0.637783
v -0.017760 1.664952 0.132064
v 0.666666 1.552644 0.347793
v -0.523911 -1.636864 0.119543
v -0.416542 -1.673808 0.000767
v -0.416542 -1.673808 0.121243
v -0.622491 -1.602944 -0.054339
v 0.306393 -1.680195 -0.211731
v 1.123558 -1.303552 0.117770
v 0.360017 -1.682580 -0.128969
v 0.467425 -1.194686 -1.074626
v 1.177155 -1.261035 0.099197
v 1.222828 -1.222828 0.078911
v 1.354030 -1.065989 -0.085578
v 1.420578 -0.863283 -0.446838
v 1.364410 -1.050538 -0.105458
v 1.422609 -0.914607 -0.328126
v 1.177155 -1.261035 0.099197
v 1.212868 -1.212868 0.222205
v 1.123558 -1.303552 0.117770
v 1.222828 -1.222828 0.096862
v 1.354030 -1.065989 -0.085578
v 1.222828 -1.222828 0.096862
v 1.222828 -1.222828 0.078911
v 1.354031 -1.065989 0.104881
v 1.422609 -0.914607 -0.328126
v 1.478040 -0.881386 -0.111766
v 1.364410 -1.050538 -0.105458
v 1.454075 -0.866136 -0.333485
v -0.823097 -0.771343 -1.305115
v -0.772658 -0.700647 -1.373257
v -0.757196 -0.791118 -1.336190
v 1.418478 -0.970051 0.108459
v 1.334635 -1.050120 0.313142
v 1.354031 -1.065989 0.104881
v 1.344141 -1.035478 0.314761
v 1.430897 -0.851386 -0.438951
v 1.544257 -0.683392 -0.347427
v 1.454075 -0.866136 -0.333485
v 1.354030 -1.065989 -0.085578
v 1.418478 -0.970051 0.108459
v 1.354031 -1.065989 0.104881
v 1.364410 -1.050538 -0.105458
v 1.478040 -0.881386 -0.111766
v 1.478040 -0.881386 -0.077460
v 1.478040 -0.881386 -0.111766
v 1.488309 -0.861239 -0.112282
v 1.478040 -0.881386 -0.077460
v 1.334635 -1.050120 0.313142
v 1.290622 -1.052370 0.446095
v 1.249038 -1.156126 0.297136
v 1.325569 -1.042702 0.361112
v 1.334635 -1.050120 0.313142
v 1.344141 -1.035478 0.314761
v 1.325569 -1.042702 0.361112
v 0.511137 1.440779 0.800176
v 0.491393 1.446280 0.802305
v 0.509240 1.437457 0.806380
v 0.649236 -0.190105 1.414157
v 0.135293 -0.757269 1.489055
v 1.088627 -0.888164 0.812060
v 0.237503 -0.536421 1.523308
v 0.580859 1.505801 0.604601
v 0.491393 1.446280 0.802305
v 0.511137 1.440779 0.800176
v 0.400777 1.484668 0.783980
v -0.823097 -0.771343 -1.305115
v -0.748901 -0.825271 -1.317838
v -0.907460 -0.878546 -1.179655
v -0.757196 -0.791118 -1.336190
v -0.674922 -0.812835 -1.361507
v -0.531577 -0.229802 -1.560545
v -0.086602 -0.911914 -1.377195
v -0.678938 -0.808010 -1.362734
v -0.747460 -0.662229 -1.404067
v 1.454075 -0.866136 -0.333485
v 1.488309 -0.861239 -0.112282
v 1.478040 -0.881386 -0.111766
v 1.544257 -0.683392 -0.347427
v 1.545887 -0.680551 -0.346056
v 1.420578 -0.863283 -0.446838
v 1.454075 -0.866136 -0.333485
v 1.422609 -0.914607 -0.328126
v 1.430897 -0.851386 -0.438951
v 0.580859 1.505801 0.604601
v -0.048340 1.536495 0.744310
v 0.400777 1.484668 0.783980
v 0.646611 1.535139 0.438363
v 0.666817 1.552436 0.348692
v -0.017760 1.664952 0.132064
v 0.666666 1.552644 0.347793
v -0.371435 -1.101571 1.174061
v -0.523911 -1.636864 0.119543
v -0.429730 -1.638965 0.326168
v -0.622491 -1.602944 -0.054339
v -0.791445 -1.460863 -0.240149
v -1.106974 -0.394524 0.483418
v -0.216250 1.286341 0.829070
v -0.230090 1.470444 -0.637783
v -1.112040 0.075770 0.388643
v -0.048340 1.536495 0.744310
v -0.017760 1.664952 0.132064
v 0.649236 -0.190105 1.414157
v -0.216250 1.286341 0.829070
v 0.237503 -0.536421 1.523308
v 0.509240 1.437457 0.806380
v -0.048340 1.536495 0.744310
v 0.491393 1.446280 0.802305
v 0.400777 1.484668 0.783980
v 0.666666 1.552644 0.347793
v 0.684484 1.543718 0.347344
v 0.689598 1.542760 0.336259
v 0.666817 1.552436 0.348692
v 0.684484 1.543718 0.347344
v 0.666817 1.552436 0.348692
v 0.646611 1.535139 0.438363
v 1.177155 -1.261035 0.099197
v 1.222828 -1.222828 0.078911
v 1.222828 -1.222828 0.096862
v 0.193782 -1.712465 -0.122914
v 0.142189 -1.721419 -0.086375
v 0.142189 -1.721419 -0.091989
v 0.317359 -1.691020 -0.121987
v -0.234108 -1.705467 0.122611
v -0.142189 -1.721419 -0.004192
v -0.142189 -1.721419 0.051905
v -0.416542 -1.673808 0.000767
v -0.416542 -1.673808 0.121243
v 0.142189 -1.721419 -0.086375
v -0.142189 -1.721419 -0.004192
v 0.142189 -1.721419 -0.091989
v -0.142189 -1.721419 0.051905
v -0.409972 -1.649717 0.299029
v -0.523911 -1.636864 0.119543
v -0.416542 -1.673808 0.121243
v -0.429730 -1.638965 0.326168
v -0.416542 -1.673808 0.121243
v -0.234108 -1.705467 0.122611
v -0.409972 -1.649717 0.299029
v 1.354031 -1.065989 0.104881
v 1.212868 -1.212868 0.222205
v 1.222828 -1.222828 0.096862
v 1.249038 -1.156126 0.297136
v 1.334635 -1.050120 0.313142
v 0.306393 -1.680195 -0.211731
v 0.317359 -1.691020 -0.121987
v 0.193782 -1.712465 -0.122914
v 0.360017 -1.682580 -0.128969
v 1.325569 -1.042702 0.361112
v 1.088627 -0.888164 0.812060
v 1.290622 -1.052370 0.446095
v 1.344141 -1.035478 0.314761
v 1.418478 -0.970051 0.108459
v 1.478040 -0.881386 -0.077460
v 0.649236 -0.190105 1.414157
v 1.488309 -0.861239 -0.112282
v 1.545887 -0.680551 -0.346056
v 1.089210 1.202688 -0.379080
v 0.509240 1.437457 0.806380
v 0.689598 1.542760 0.336259
v 0.511137 1.440779 0.800176
v 0.580859 1.505801 0.604601
v 0.646611 1.535139 0.438363
v 0.684484 1.543718 0.347344
v -0.416542 -1.673808 0.000767
v 0.142189 -1.721419 -0.091989
v -0.142189 -1.721419 -0.004192
v 0.193782 -1.712465 -0.122914
v 0.306393 -1.680195 -0.211731
v 0.467425 -1.194686 -1.074626
v -0.622491 -1.602944 -0.054339
v -0.791445 -1.460863 -0.240149
v -1.017344 -0.979746 -0.976229
v -0.086602 -0.911914 -1.377195
v -0.907460 -0.878546 -1.179655
v -0.674922 -0.812835 -1.361507
v -0.748901 -0.825271 -1.317838
v -0.757196 -0.791118 -1.336190
v -0.674922 -0.812835 -1.361507
v -0.748901 -0.825271 -1.317838
v -0.678938 -0.808010 -1.362734
v -0.086602 -0.911914 -1.377195
v 1.420578 -0.863283 -0.446838
v 0.467425 -1.194686 -1.074626
v -0.531577 -0.229802 -1.560545
v 1.430897 -0.851386 -0.438951
v 1.544257 -0.683392 -0.347427
v 1.545887 -0.680551 -0.346056
v 1.089210 1.202688 -0.379080
v -0.128195 1.287781 -1.114256
v -0.757196 -0.791118 -1.336190
v -0.747460 -0.662229 -1.404067
v -0.678938 -0.808010 -1.362734
v -0.772658 -0.700647 -1.373257
v -1.195659 -0.165592 0.372356
v -0.907460 -0.878546 -1.179655
v -1.017344 -0.979746 -0.976229
v -0.823097 -0.771343 -1.305115
v -0.772658 -0.700647 -1.373257
v -0.747460 -0.662229 -1.404067
v -0.531577 -0.229802 -1.560545
v -0.128195 1.287781 -1.114256
v -1.112040 0.075770 0.388643
v -0.230090 1.470444 -0.637783
v 0.142189 -1.721419 -0.086375
v -0.234108 -1.705467 0.122611
v -0.142189 -1.721419 0.051905
v 0.317359 -1.691020 -0.121987
v -0.409972 -1.649717 0.299029
v 0.360017 -1.682580 -0.128969
v 1.123558 -1.303552 0.117770
v -0.429730 -1.638965 0.326168
v -0.371435 -1.101571 1.174061
v 1.212868 -1.212868 0.222205
v 1.249038 -1.156126 0.297136
v 1.290622 -1.052370 0.446095
v 0.135293 -0.757269 1.489055
v 1.088627 -0.888164 0.812060
v 0.135293 -0.757269 1.489055
v -1.106974 -0.394524 0.483418
v -0.371435 -1.101571 1.174061
v 0.237503 -0.536421 1.523308
v -0.216250 1.286341 0.829070
v -1.195659 -0.165592 0.372356
v -1.112040 0.075770 0.388643
v -1.106974 -0.394524 0.483418
v -1.017344 -0.979746 -0.976229
v -0.791445 -1.460863 -0.240149
v -1.195659 -0.165592 0.372356
vt 0.756589 0.510289
vt 0.689277 0.658011
vt 0.633824 0.583050
vt 0.750984 0.534214
vt 0.748728 0.632376
vt 0.691647 0.658999
vt 0.206094 0.636364
vt 0.215909 0.625072
vt 0.215909 0.636364
vt 0.197082 0.619736
vt 0.275241 0.605148
vt 0.360798 0.638240
vt 0.279431 0.612945
vt 0.334105 0.492285
vt 0.368382 0.636364
vt 0.375000 0.634258
vt 0.397727 0.615728
vt 0.418796 0.578747
vt 0.399630 0.613636
vt 0.414467 0.590909
vt 0.368382 0.636364
vt 0.375000 0.651161
vt 0.360798 0.638240
vt 0.375000 0.636364
vt 0.397727 0.615728
vt 0.375000 0.636364
vt 0.375000 0.634258
vt 0.397727 0.636364
vt 0.420455 0.287778
vt 0.430594 0.295455
vt 0.420455 0.295455
vt 0.420455 0.579828
vt 0.439864 0.590909
vt 0.420455 0.590909
vt 0.399630 0.613636
vt 0.409539 0.636364
vt 0.397727 0.615728
vt 0.420455 0.613636
vt 0.420455 0.617124
vt 0.420455 0.613636
vt 0.422572 0.613636
vt 0.420455 0.617124
vt 0.397727 0.659091
vt 0.399536 0.659091
vt 0.397727 0.664441
vt 0.701008 0.704545
vt 0.703010 0.704545
vt 0.701069 0.705231
vt 0.492552 0.794377
vt 0.405377 0.834411
vt 0.411857 0.721196
vt 0.459716 0.841595
vt 0.419929 0.304359
vt 0.490157 0.334713
vt 0.401869 0.385375
vt 0.420455 0.304030
vt 0.435547 0.298903
vt 0.697182 0.684462
vt 0.749764 0.699003
vt 0.712534 0.701626
vt 0.692695 0.668023
vt 0.691624 0.659091
vt 0.748728 0.632376
vt 0.691647 0.658999
vt 0.249657 0.764055
vt 0.206094 0.636364
vt 0.213976 0.655852
vt 0.197082 0.619736
vt 0.213976 0.559627
vt 0.709835 0.743770
vt 0.750984 0.534214
vt 0.538593 0.184156
vt 0.749764 0.699003
vt 0.748728 0.632376
vt 0.492552 0.794377
vt 0.709835 0.730987
vt 0.459716 0.841595
vt 0.701069 0.705231
vt 0.749764 0.698029
vt 0.703010 0.704545
vt 0.712534 0.701626
vt 0.691647 0.658999
vt 0.689748 0.659091
vt 0.689277 0.658011
vt 0.691624 0.659091
vt 0.689748 0.659091
vt 0.691624 0.659091
vt 0.692695 0.668023
vt 0.368382 0.636364
vt 0.375000 0.634258
vt 0.375000 0.636364
vt 0.231022 0.636364
vt 0.215909 0.625072
vt 0.238636 0.624614
vt 0.261364 0.617040
vt 0.238636 0.624614
vt 0.261364 0.616522
vt 0.238636 0.629784
vt 0.215909 0.636364
vt 0.231022 0.636364
vt 0.215909 0.653190
vt 0.275241 0.605148
vt 0.275875 0.613636
vt 0.265638 0.613636
vt 0.279431 0.612945
vt 0.397727 0.664441
vt 0.411857 0.721196
vt 0.394329 0.674564
vt 0.399536 0.659091
vt 0.409539 0.636364
vt 0.420455 0.617124
vt 0.492552 0.794377
vt 0.422572 0.613636
vt 0.440177 0.591072
vt 0.633824 0.583050
vt 0.701069 0.705231
vt 0.689277 0.658011
vt 0.701008 0.704545
vt 0.697182 0.684462
vt 0.692695 0.668023
vt 0.689748 0.659091
vt 0.215909 0.625072
vt 0.261364 0.616522
vt 0.238636 0.624614
vt 0.275241 0.605148
vt 0.265638 0.613636
vt 0.334105 0.492285
vt 0.197082 0.619736
vt 0.213976 0.559627
vt 0.388057 0.245065
vt 0.401869 0.385375
vt 0.401892 0.272922
vt 0.419929 0.304359
vt 0.416161 0.295455
vt 0.420455 0.295455
vt 0.419929 0.304359
vt 0.416161 0.295455
vt 0.420455 0.304030
vt 0.401869 0.385375
vt 0.418796 0.578747
vt 0.334105 0.492285
vt 0.490157 0.334713
vt 0.420455 0.579828
vt 0.439864 0.590909
vt 0.440177 0.591072
vt 0.633824 0.583050
vt 0.756589 0.510289
vt 0.508346 0.160890
vt 0.401892 0.272922
vt 0.388057 0.245065
vt 0.420455 0.287778
vt 0.430594 0.295455
vt 0.435547 0.298903
vt 0.490157 0.334713
vt 0.756589 0.510289
vt 0.538593 0.184156
vt 0.750984 0.534214
vt 0.261364 0.617040
vt 0.231022 0.636364
vt 0.238636 0.629784
vt 0.275875 0.613636
vt 0.215909 0.653190
vt 0.279431 0.612945
vt 0.360798 0.638240
vt 0.213976 0.655852
vt 0.249657 0.764055
vt 0.375000 0.651161
vt 0.382422 0.659091
vt 0.394329 0.674564
vt 0.405377 0.834411
vt 0.411857 0.721196
vt 0.405377 0.834411
vt 0.436312 0.279219
vt 0.249657 0.764055
vt 0.459716 0.841595
vt 0.709835 0.730987
vt 0.508346 0.160890
vt 0.538593 0.184156
vt 0.436312 0.279219
vt 0.388057 0.245065
vt 0.213976 0.559627
vt 0.508346 0.160890
vt 0.414467 0.590909
vt 0.420455 0.613636
vt 0.399630 0.613636
vt 0.420455 0.590909
vt 0.409539 0.636364
vt 0.397727 0.659091
vt 0.397727 0.636364
vt 0.399536 0.659091
vt 0.397727 0.636364
vt 0.397727 0.659091
vt 0.394329 0.674564
vt 0.382422 0.659091
vt 0.397727 0.664441
vt 0.697182 0.684462
vt 0.703010 0.704545
vt 0.701008 0.704545
vt 0.712534 0.701626
vt 0.420455 0.287778
vt 0.416161 0.295455
vt 0.401892 0.272922
vt 0.420455 0.295455
vt 0.420455 0.590909
vt 0.422572 0.613636
vt 0.420455 0.613636
vt 0.439864 0.590909
vt 0.440177 0.591072
vt 0.418796 0.578747
vt 0.420455 0.590909
vt 0.414467 0.590909
vt 0.420455 0.579828
vt 0.436312 0.279219
vt 0.265638 0.613636
vt 0.261364 0.617040
vt 0.261364 0.616522
vt 0.275875 0.613636
vt 0.238636 0.629784
vt 0.215909 0.636364
vt 0.215909 0.653190
vt 0.206094 0.636364
vt 0.215909 0.636364
vt 0.213976 0.655852
vt 0.397727 0.636364
vt 0.375000 0.651161
vt 0.375000 0.636364
vt 0.382422 0.659091
vt 0.397727 0.659091
vt 0.420455 0.295455
vt 0.435547 0.298903
vt 0.420455 0.304030
vt 0.430594 0.295455
vn 0.2460 0.9215 -0.3007
vn -0.3254 -0.9456 0.0000
vn 0.5048 -0.7892 -0.3498
vn 0.6410 -0.7594 0.1113
vn 0.7670 -0.6416 0.0000
vn -0.4864 -0.4011 -0.7762
vn 0.8603 -0.4437 -0.2511
vn 0.8301 -0.5576 -0.0000
vn 0.8909 -0.4541 0.0000
vn 0.8028 -0.5473 0.2364
vn 0.2809 0.8077 0.5183
vn 0.5079 -0.3567 0.7841
vn -0.0767 -0.3052 -0.9492
vn 0.0939 0.9734 0.2089
vn 0.0939 0.9734 0.2090
vn -0.7998 -0.4807 0.3596
vn -0.8149 0.5740 0.0797
vn -0.0428 0.3463 0.9372
vn 0.4467 0.8852 0.1296
vn 0.4429 0.8565 0.2650
vn 0.6416 -0.7670 0.0000
vn -0.1710 -0.9853 0.0000
vn 0.0000 -1.0000 0.0000
vn -0.1703 -0.9756 0.1385
vn 0.1703 -0.9756 -0.1385
vn 0.8923 0.2233 0.3923
vn 0.8923 0.2232 0.3923
vn -0.1563 -0.8481 -0.5063
vn -0.1563 -0.8480 -0.5063
vn -0.3730 -0.5079 -0.7765
vn -0.3730 -0.5078 -0.7765
vn 0.5194 0.1111 -0.8473
vn -0.8895 0.3295 -0.3165
vn -0.8895 0.3295 -0.3166
vn 0.2464 -0.8262 0.5067
vn -0.5945 0.1527 0.7895
vn -0.9415 -0.3288 0.0740
vn 0.8223 -0.5550 -0.1255
vn 0.8224 -0.5549 -0.1255
vn 0.8226 -0.5559 0.1195
vn 0.8227 -0.5558 0.1196
vn 0.7396 -0.6310 0.2342
vn 0.7395 -0.6311 0.2341
vn 0.7396 -0.6311 0.2342
vn 0.2892 0.8726 0.3936
vn 0.2893 0.8726 0.3936
vn 0.2891 0.8726 0.3936
vn -0.4787 -0.4861 -0.7311
vn -0.4787 -0.4862 -0.7311
vn 0.8854 -0.4471 -0.1271
vn 0.8853 -0.4473 -0.1271
vn 0.8853 -0.4472 -0.1271
vn 0.8009 -0.5439 -0.2504
vn 0.8010 -0.5439 -0.2504
vn 0.1710 -0.9853 0.0000
vn -0.3235 -0.9361 0.1383
vn -0.3238 -0.9359 0.1386
vn 0.7614 -0.6379 0.1157
vn 0.7614 -0.6379 0.1158
vn 0.7614 -0.6378 0.1158
vn -0.3757 -0.4095 -0.8314
vn -0.3757 -0.4094 -0.8314
usemtl None
s off
f 1/1/1 2/2/1 3/3/1
f 4/4/1 2/2/1 1/1/1
f 5/5/1 2/2/1 4/4/1
f 5/5/1 6/6/1 2/2/1
f 7/7/2 8/8/2 9/9/2
f 7/7/2 10/10/2 8/8/2
f 11/11/3 12/12/3 13/13/3
f 14/14/3 12/12/3 11/11/3
f 14/14/3 15/15/3 12/12/3
f 14/14/3 16/16/3 15/15/3
f 14/14/3 17/17/3 16/16/3
f 18/18/3 19/19/3 17/17/3
f 18/18/3 20/20/3 19/19/3
f 21/21/4 22/22/4 23/23/4
f 24/24/4 22/22/4 21/21/4
f 25/25/5 26/26/5 27/27/5
f 25/25/5 28/28/5 26/26/5
f 33/29/6 34/30/6 35/31/6
f 40/32/7 41/33/7 42/34/7
f 46/35/8 44/36/8 43/37/8
f 47/38/8 48/39/8 44/36/8
f 49/40/9 50/41/9 51/42/9
f 56/43/10 57/44/10 58/45/10
f 59/46/11 60/47/11 61/48/11
f 62/49/12 63/50/12 64/51/12
f 62/49/12 65/52/12 63/50/12
f 74/53/13 75/54/13 76/55/13
f 77/56/13 75/54/13 74/53/13
f 78/57/13 75/54/13 77/56/13
f 88/58/14 89/59/14 90/60/14
f 91/61/14 89/59/14 88/58/14
f 92/62/14 89/59/14 91/61/14
f 92/62/14 93/63/14 89/59/14
f 94/64/15 93/63/15 92/62/15
f 95/65/16 96/66/16 97/67/16
f 95/65/16 98/68/16 96/66/16
f 95/65/16 99/69/16 98/68/16
f 101/70/17 102/71/17 103/72/17
f 104/73/17 102/71/17 101/70/17
f 104/73/17 105/74/17 102/71/17
f 106/75/18 107/76/18 108/77/18
f 109/78/18 110/79/18 107/76/18
f 111/80/18 110/79/18 109/78/18
f 112/81/18 110/79/18 111/80/18
f 113/82/19 114/83/19 115/84/19
f 113/82/19 116/85/19 114/83/19
f 117/86/20 118/87/20 119/88/20
f 120/89/21 121/90/21 122/91/21
f 127/92/22 130/93/22 128/94/22
f 132/95/23 133/96/23 134/97/23
f 135/98/23 133/96/23 132/95/23
f 140/99/24 141/100/24 142/101/24
f 148/102/25 149/103/25 150/104/25
f 148/102/25 151/105/25 149/103/25
f 152/106/26 153/107/26 154/108/26
f 155/109/26 153/107/26 152/106/26
f 156/110/26 153/107/26 155/109/26
f 157/111/26 153/107/26 156/110/26
f 157/111/26 158/112/26 153/107/26
f 159/113/26 158/112/26 157/111/26
f 160/114/26 158/112/26 159/113/26
f 161/115/26 158/112/26 160/114/26
f 161/115/26 162/116/26 158/112/26
f 163/117/26 162/116/26 161/115/26
f 163/117/26 164/118/26 162/116/26
f 163/117/26 165/119/26 164/118/26
f 163/117/26 166/120/26 165/119/26
f 163/117/27 167/121/27 166/120/27
f 168/122/28 169/123/28 170/124/28
f 168/122/29 172/125/29 171/126/29
f 168/122/28 173/127/28 172/125/28
f 174/128/28 173/127/28 168/122/28
f 175/129/28 173/127/28 174/128/28
f 176/130/28 173/127/28 175/129/28
f 176/130/28 177/131/28 173/127/28
f 178/132/28 177/131/28 176/130/28
f 178/132/28 179/133/28 177/131/28
f 180/134/28 179/133/28 178/132/28
f 181/135/30 182/136/30 183/137/30
f 181/135/31 184/138/31 182/136/31
f 185/139/32 186/140/32 187/141/32
f 188/142/32 186/140/32 185/139/32
f 188/142/32 189/143/32 186/140/32
f 188/142/32 190/144/32 189/143/32
f 188/142/32 191/145/32 190/144/32
f 188/142/32 192/146/32 191/145/32
f 193/147/32 192/146/32 188/142/32
f 198/148/33 199/149/33 200/150/33
f 198/148/34 201/151/34 199/149/34
f 198/148/33 202/152/33 201/151/33
f 198/148/33 203/153/33 202/152/33
f 198/148/33 204/154/33 203/153/33
f 198/148/33 205/155/33 204/154/33
f 206/156/34 205/155/34 198/148/34
f 207/157/33 205/155/33 206/156/33
f 208/158/35 209/159/35 210/160/35
f 211/161/35 209/159/35 208/158/35
f 211/161/35 212/162/35 209/159/35
f 213/163/35 212/162/35 211/161/35
f 214/164/35 212/162/35 213/163/35
f 214/164/35 215/165/35 212/162/35
f 214/164/35 216/166/35 215/165/35
f 217/167/35 216/166/35 214/164/35
f 218/168/35 216/166/35 217/167/35
f 219/169/35 216/166/35 218/168/35
f 219/169/35 220/170/35 216/166/35
f 221/171/35 220/170/35 219/169/35
f 222/172/36 223/173/36 224/174/36
f 225/175/36 223/173/36 222/172/36
f 226/176/36 223/173/36 225/175/36
f 226/176/36 227/177/36 223/173/36
f 226/176/36 228/178/36 227/177/36
f 229/179/37 230/180/37 231/181/37
f 229/179/37 232/182/37 230/180/37
s 1
f 18/18/3 17/17/3 14/14/3
f 29/183/38 30/184/39 31/185/38
f 32/186/38 30/184/39 29/183/38
f 36/187/40 37/188/41 38/189/41
f 36/187/40 39/190/41 37/188/41
f 43/37/8 44/36/8 45/191/8
f 47/38/8 44/36/8 46/35/8
f 52/192/42 53/193/43 54/194/43
f 52/192/42 55/195/44 53/193/43
f 66/196/45 67/197/46 68/198/46
f 66/196/45 69/199/47 67/197/46
f 70/200/48 71/201/49 72/202/49
f 70/200/48 73/203/48 71/201/49
f 79/204/50 80/205/51 81/206/51
f 82/207/52 80/205/51 79/204/50
f 82/207/52 83/208/51 80/205/51
f 84/209/53 85/210/54 86/211/53
f 84/209/53 87/212/53 85/210/54
f 95/65/16 100/213/16 99/69/16
f 109/78/18 107/76/18 106/75/18
f 123/214/55 124/215/55 125/216/55
f 123/214/55 126/217/55 124/215/55
f 127/92/22 128/94/22 129/218/22
f 131/219/22 130/93/22 127/92/22
f 136/220/56 137/221/57 138/222/56
f 139/223/56 137/221/57 136/220/56
f 143/224/58 144/225/59 145/226/59
f 143/224/58 146/227/60 144/225/59
f 143/224/58 147/228/59 146/227/60
f 168/122/28 171/126/28 169/123/28
f 194/229/61 195/230/62 196/231/61
f 197/232/62 195/230/62 194/229/61
